<svg id="Layer_1" data-name="Layer 1" xmlns="http://www.w3.org/2000/svg" viewBox="0 0 871.35 879.1"><defs><style>.cls-1{fill:none;stroke:#fff;stroke-miterlimit:10;stroke-width:15px;}.cls-2{fill:#ec1c24;}.cls-3{fill:#3f48cc;}</style></defs><title>CustomMenuPointers</title><path class="cls-1" d="M654,644.7" transform="translate(-87.19 -80.65)"/><path class="cls-1" d="M600.54,561.68" transform="translate(-87.19 -80.65)"/><path class="cls-2" d="M684.26,831.67l-46.72-46.92L525.38,672.11,389.74,535.9,273.1,418.76c-19-19.09-37.76-38.47-57-57.28l-.8-.8-15.18-11.73-17.92-7.56-19.94-2.68a56.48,56.48,0,0,0-28.9,6.46,37.47,37.47,0,0,0-16.55,9.64,37.69,37.69,0,0,0-13.45,13.45,37.47,37.47,0,0,0-9.64,16.55,56.48,56.48,0,0,0-6.46,28.9v320a77.38,77.38,0,0,0,22,53,56.22,56.22,0,0,0,24.14,15.51,56.48,56.48,0,0,0,28.9,6.46c19.4-.87,39.51-7.24,53-22s22-32.71,22-53v-320l-128,53,46.72,46.92L268.08,626.3,403.72,762.52,520.36,879.65c19,19.09,37.87,38.35,57,57.28l.8.8c13.55,13.61,33.84,22,53,22a56.48,56.48,0,0,0,28.9-6.46,56.22,56.22,0,0,0,24.14-15.51c13.12-14.29,22.86-33.06,22-53s-7.63-38.64-22-53Z" transform="translate(-87.19 -80.65)"/><path class="cls-2" d="M484.23,338.71h-322a77.38,77.38,0,0,0-53,22,56.22,56.22,0,0,0-15.51,24.14,56.48,56.48,0,0,0-6.46,28.9c.87,19.4,7.24,39.51,22,53s32.71,22,53,22h322a77.38,77.38,0,0,0,53-22,56.22,56.22,0,0,0,15.51-24.14,56.48,56.48,0,0,0,6.46-28.9c-.87-19.4-7.24-39.51-22-53s-32.71-22-53-22Z" transform="translate(-87.19 -80.65)"/><path class="cls-3" d="M936.51,573.66l-46.72-46.92L777.62,414.1,642,277.88,525.35,160.75c-19-19.09-37.76-38.47-57-57.28l-.8-.8L452.33,90.94l-17.92-7.56L414.48,80.7a56.48,56.48,0,0,0-28.9,6.46A37.47,37.47,0,0,0,369,96.8a37.69,37.69,0,0,0-13.45,13.45,37.47,37.47,0,0,0-9.64,16.55,56.48,56.48,0,0,0-6.46,28.9v320a77.38,77.38,0,0,0,22,53,56.22,56.22,0,0,0,24.14,15.51,56.48,56.48,0,0,0,28.9,6.46c19.4-.87,39.51-7.24,53-22s22-32.71,22-53v-320l-128,53,46.72,46.92L520.33,368.29,656,504.51,772.6,621.64c19,19.09,37.87,38.35,57,57.28l.8.8c13.55,13.61,33.84,22,53,22a56.48,56.48,0,0,0,28.9-6.46,56.22,56.22,0,0,0,24.14-15.51c13.12-14.29,22.86-33.06,22-53s-7.63-38.64-22-53Z" transform="translate(-87.19 -80.65)"/><path class="cls-3" d="M736.48,80.7h-322a77.38,77.38,0,0,0-53,22,56.22,56.22,0,0,0-15.51,24.14,56.48,56.48,0,0,0-6.46,28.9c.87,19.4,7.24,39.51,22,53s32.71,22,53,22h322a77.38,77.38,0,0,0,53-22A56.22,56.22,0,0,0,805,184.59a56.48,56.48,0,0,0,6.46-28.9c-.87-19.4-7.24-39.51-22-53s-32.71-22-53-22Z" transform="translate(-87.19 -80.65)"/></svg>