<svg id="Layer_1" data-name="Layer 1" xmlns="http://www.w3.org/2000/svg" viewBox="0 0 836.54 888.61"><defs><style>.cls-1,.cls-5{fill:#3f48cc;}.cls-2,.cls-4{fill:none;}.cls-2,.cls-3{stroke:#ec1c24;}.cls-2,.cls-3,.cls-4,.cls-5{stroke-miterlimit:10;stroke-width:15px;}.cls-3{fill:#ec1c24;}.cls-4,.cls-5{stroke:#3f48cc;}</style></defs><title>DefaultPointers</title><path class="cls-1" d="M146.76,64.24l38,37.19L276,190.74,386,298.39l95.38,93.35c15.4,15.07,30.39,30.75,46.29,45.3.22.2.42.41.63.62,5.52,5.41,14-3.07,8.49-8.49l-38-37.19-91.24-89.3L297.55,195l-95.38-93.35c-15.4-15.07-30.39-30.75-46.29-45.3-.22-.2-.42-.41-.63-.62-5.52-5.41-14,3.07-8.49,8.49Z" transform="translate(-144.96 -54.02)"/><path class="cls-2" d="M650.61,848.41" transform="translate(-144.96 -54.02)"/><ellipse class="cls-2" cx="293.8" cy="497.48" rx="85.5" ry="31.5" transform="translate(-410.68 299.44) rotate(-45)"/><path class="cls-3" d="M733.34,810.23,354.65,437.42c12.3,12.3-4.79,49.34-38.18,82.73S246,570.63,233.73,558.33l378.7,372.81c12.3,12.3,49.34-4.79,82.73-38.18S745.65,822.53,733.34,810.23Z" transform="translate(-144.96 -54.02)"/><ellipse class="cls-4" cx="530.47" cy="436.81" rx="85.5" ry="31.5" transform="translate(-298.46 449.02) rotate(-45)"/><path class="cls-5" d="M970,749.56,591.31,376.75c12.3,12.3-4.79,49.34-38.18,82.73S482.7,510,470.4,497.66L849.1,870.48c12.3,12.3,49.34-4.79,82.73-38.18S982.31,761.86,970,749.56Z" transform="translate(-144.96 -54.02)"/></svg>